<svg t="1662339972261" class="icon" viewBox="0 0 1024 1024" version="1.1" xmlns="http://www.w3.org/2000/svg" p-id="3384" width="48" height="48"><path d="M768 192H256c-17.67 0-32 14.33-32 32v128c0 17.67 14.33 32 32 32s32-14.33 32-32v-96h448v512H288v-96c0-17.67-14.33-32-32-32s-32 14.33-32 32v128c0 17.67 14.33 32 32 32h512c17.67 0 32-14.33 32-32V224c0-17.67-14.33-32-32-32z" p-id="3385" fill="#ffffff"></path><path d="M224 480h64c17.67 0 32-14.33 32-32s-14.33-32-32-32h-64c-17.67 0-32 14.33-32 32s14.33 32 32 32zM288 608c17.67 0 32-14.33 32-32s-14.33-32-32-32h-64c-17.67 0-32 14.33-32 32s14.33 32 32 32h64zM627.2 326.4c-14.14-10.6-34.2-7.74-44.8 6.4L512 426.67l-70.4-93.87c-10.6-14.14-30.66-17-44.8-6.4-14.14 10.6-17 30.66-6.4 44.8L448 448h-32c-17.67 0-32 14.33-32 32s14.33 32 32 32h64v32h-64c-17.67 0-32 14.33-32 32s14.33 32 32 32h64v64c0 17.67 14.33 32 32 32s32-14.33 32-32v-64h64c17.67 0 32-14.33 32-32s-14.33-32-32-32h-64v-32h64c17.67 0 32-14.33 32-32s-14.33-32-32-32h-32l57.6-76.8c10.6-14.14 7.74-34.2-6.4-44.8z" p-id="3386" fill="#ffffff"></path></svg>